<?xml version="1.0" encoding="utf-8"?><!-- Uploaded to: SVG Repo, www.svgrepo.com, Generator: SVG Repo Mixer Tools -->
<svg width="800px" height="800px" viewBox="0 0 24 24" fill="none" xmlns="http://www.w3.org/2000/svg">
<path fill-rule="evenodd" clip-rule="evenodd" d="M2.95688 12.6018C2.96625 12.7272 2.97585 12.8329 2.98423 12.9162L2.97917 12.9189C1.96791 13.466 1 14.435 1 16V19C1 20.565 1.96791 21.534 2.97917 22.0811C3.96273 22.6131 5.11136 22.8291 5.88422 22.9223C7.09594 23.0682 8 22.0814 8 21V14C8 12.9186 7.09594 11.9318 5.88422 12.0777C5.60817 12.111 5.28418 12.1599 4.93689 12.2334C4.92229 11.9785 4.91125 11.6575 4.91404 11.2888C4.92056 10.4275 5.00257 9.33219 5.27738 8.22278L3.67314 6.61854C3.6018 6.81848 3.53712 7.0182 3.47849 7.21665C3.03699 8.71096 2.92233 10.1862 2.9141 11.2737C2.90995 11.8208 2.93272 12.2782 2.95688 12.6018ZM3.93076 14.6781C4.54579 14.3454 5.33746 14.1677 6 14.0791V20.9209C5.33746 20.8323 4.54579 20.6546 3.93076 20.3219C3.30474 19.9833 3 19.5754 3 19L3 16C3 15.4246 3.30474 15.0167 3.93076 14.6781Z" fill="#0F0F0F"/>
<path d="M6.03107 3.01206L7.44916 4.43015C8.43787 3.59941 9.87088 3 12 3C14.168 3 15.6143 3.62151 16.6046 4.47591C17.6109 5.34408 18.2325 6.52774 18.6035 7.78334C18.9745 9.03904 19.0786 10.3138 19.086 11.2888C19.0888 11.6575 19.0777 11.9785 19.0631 12.2334C18.7158 12.1599 18.3918 12.111 18.1158 12.0777C17.2307 11.9711 16.5098 12.4689 16.1854 13.1664L18 14.981V14.0791C18.6625 14.1677 19.4542 14.3454 20.0692 14.6781C20.6953 15.0167 21 15.4246 21 16V17.981L22.8905 19.8715C22.961 19.6041 23 19.314 23 19V16C23 14.435 22.0321 13.466 21.0208 12.9189L21.0158 12.9162C21.0242 12.8329 21.0338 12.7272 21.0431 12.6018C21.0673 12.2782 21.0901 11.8208 21.0859 11.2737C21.0777 10.1862 20.963 8.71096 20.5215 7.21665C20.08 5.72226 19.2954 4.15592 17.911 2.96159C16.5107 1.75349 14.582 1 12 1C9.41802 1 7.48926 1.75349 6.08896 2.96159C6.06954 2.97834 6.05025 2.99517 6.03107 3.01206Z" fill="#0F0F0F"/>
<path d="M19.6713 22.6167L16 18.9454V21C16 22.0814 16.9041 23.0682 18.1158 22.9223C18.5482 22.8702 19.0983 22.7796 19.6713 22.6167Z" fill="#0F0F0F"/>
<path d="M2.00788 3.42207C1.61736 3.03154 1.61736 2.39838 2.00789 2.00785C2.39841 1.61733 3.03157 1.61733 3.4221 2.00785L22.0004 20.5862C22.391 20.9767 22.391 21.6099 22.0004 22.0004C21.6099 22.3909 20.9767 22.3909 20.5862 22.0004L2.00788 3.42207Z" fill="#0F0F0F"/>
</svg>